# xmcd
#
# Track frame offsets:
#	150
#	30005
#	43238
#	58490
#	66215
#	77140
#	98065
#	109323
#	126525
#
# Disc length: 1935
#
# Revision: 1
# Processed by: cddbd v1.5.1PL0 Copyright (c) Steve Scherf et al.
# Submitted via: EasyCDDAExtractor 8.0.2.1
# Normalized: r0:DSETVAR1
#
DISCID=7e078d09
DTITLE=Various Artist - Passaro Proibido
DYEAR=1976
DGENRE=Blues
TTITLE0=Maria Bethania - As Ayabas
TTITLE1=Maria Bethania - Mae Maria
TTITLE2=Maria Bethania - Balada do Lado Sem Luz
TTITLE3=Maria Bethania - A Bahia Te Espera
TTITLE4=Maria Bethania - Pecado
TTITLE5=Maria Bethania - Olhos Nos Olhos
TTITLE6=Maria Bethania - Festa
TTITLE7=Maria Bethania - Amor, Amor
TTITLE8=Caetano Veloso - Passaro Proibido
EXTD=
EXTT0=
EXTT1=
EXTT2=
EXTT3=
EXTT4=
EXTT5=
EXTT6=
EXTT7=
EXTT8=
PLAYORDER=
